
<svg width="500" height="200"
     viewBox="0 0 500 200"
     xmlns="http://www.w3.org/2000/svg">

<style>
  .title {
    font: bold 20px sans-serif;
    fill: #1f6feb;
  }
  .label {
    font: 14px sans-serif;
    fill: #24292f;
  }
  .percent {
    font: 13px monospace;
    fill: #57606a;
  }
</style>

<rect x="0" y="0" width="500" height="200"
      rx="12" fill="#ffffff" stroke="#d0d7de"/>

<text x="20" y="30" class="title">My Programming Languages</text>

<text x="20" y="65" class="label">Shell</text>

<rect x="140" y="55" width="280" height="12"
      rx="6" fill="#eaeef2"/>

<rect x="140" y="55" width="72.550258941736" height="12"
      rx="6" fill="#2da44e"/>

<text x="430" y="65"
      class="percent">25.91%</text>

<text x="20" y="97" class="label">Python</text>

<rect x="140" y="87" width="280" height="12"
      rx="6" fill="#eaeef2"/>

<rect x="140" y="87" width="72.31818399663953" height="12"
      rx="6" fill="#2da44e"/>

<text x="430" y="97"
      class="percent">25.83%</text>

<text x="20" y="129" class="label">Lean</text>

<rect x="140" y="119" width="280" height="12"
      rx="6" fill="#eaeef2"/>

<rect x="140" y="119" width="59.69062312348293" height="12"
      rx="6" fill="#2da44e"/>

<text x="430" y="129"
      class="percent">21.32%</text>

<text x="20" y="161" class="label">Lua</text>

<rect x="140" y="151" width="280" height="12"
      rx="6" fill="#eaeef2"/>

<rect x="140" y="151" width="32.17474408888312" height="12"
      rx="6" fill="#2da44e"/>

<text x="430" y="161"
      class="percent">11.49%</text>

<text x="20" y="193" class="label">Futhark</text>

<rect x="140" y="183" width="280" height="12"
      rx="6" fill="#eaeef2"/>

<rect x="140" y="183" width="17.692951766639514" height="12"
      rx="6" fill="#2da44e"/>

<text x="430" y="193"
      class="percent">6.32%</text>
</svg>