
<svg width="500" height="200"
     viewBox="0 0 500 200"
     xmlns="http://www.w3.org/2000/svg">

<style>
  .title {
    font: bold 20px sans-serif;
    fill: #1f6feb;
  }
  .label {
    font: 14px sans-serif;
    fill: #24292f;
  }
  .percent {
    font: 13px monospace;
    fill: #57606a;
  }
</style>

<rect x="0" y="0" width="500" height="200"
      rx="12" fill="#ffffff" stroke="#d0d7de"/>

<text x="20" y="30" class="title">My Programming Languages</text>

<text x="20" y="65" class="label">Zig</text>

<rect x="140" y="55" width="280" height="12"
      rx="6" fill="#eaeef2"/>

<rect x="140" y="55" width="83.00221720093312" height="12"
      rx="6" fill="#2da44e"/>

<text x="430" y="65"
      class="percent">29.64%</text>

<text x="20" y="97" class="label">Python</text>

<rect x="140" y="87" width="280" height="12"
      rx="6" fill="#eaeef2"/>

<rect x="140" y="87" width="72.22450170768776" height="12"
      rx="6" fill="#2da44e"/>

<text x="430" y="97"
      class="percent">25.79%</text>

<text x="20" y="129" class="label">Lean</text>

<rect x="140" y="119" width="280" height="12"
      rx="6" fill="#eaeef2"/>

<rect x="140" y="119" width="71.7126384305839" height="12"
      rx="6" fill="#2da44e"/>

<text x="430" y="129"
      class="percent">25.61%</text>

<text x="20" y="161" class="label">Futhark</text>

<rect x="140" y="151" width="280" height="12"
      rx="6" fill="#eaeef2"/>

<rect x="140" y="151" width="24.922186071509064" height="12"
      rx="6" fill="#2da44e"/>

<text x="430" y="161"
      class="percent">8.90%</text>

<text x="20" y="193" class="label">HTML</text>

<rect x="140" y="183" width="280" height="12"
      rx="6" fill="#eaeef2"/>

<rect x="140" y="183" width="9.391531486757474" height="12"
      rx="6" fill="#2da44e"/>

<text x="430" y="193"
      class="percent">3.35%</text>
</svg>