
<svg width="500" height="200"
     viewBox="0 0 500 200"
     xmlns="http://www.w3.org/2000/svg">

<style>
  .title {
    font: bold 20px sans-serif;
    fill: #1f6feb;
  }
  .label {
    font: 14px sans-serif;
    fill: #24292f;
  }
  .percent {
    font: 13px monospace;
    fill: #57606a;
  }
</style>

<rect x="0" y="0" width="500" height="200"
      rx="12" fill="#ffffff" stroke="#d0d7de"/>

<text x="20" y="30" class="title">My Programming Languages</text>

<text x="20" y="65" class="label">Python</text>

<rect x="140" y="55" width="280" height="12"
      rx="6" fill="#eaeef2"/>

<rect x="140" y="55" width="116.64524192966854" height="12"
      rx="6" fill="#2da44e"/>

<text x="430" y="65"
      class="percent">41.66%</text>

<text x="20" y="97" class="label">Lean</text>

<rect x="140" y="87" width="280" height="12"
      rx="6" fill="#eaeef2"/>

<rect x="140" y="87" width="101.78612119318319" height="12"
      rx="6" fill="#2da44e"/>

<text x="430" y="97"
      class="percent">36.35%</text>

<text x="20" y="129" class="label">Futhark</text>

<rect x="140" y="119" width="280" height="12"
      rx="6" fill="#eaeef2"/>

<rect x="140" y="119" width="30.170516549287314" height="12"
      rx="6" fill="#2da44e"/>

<text x="430" y="129"
      class="percent">10.78%</text>

<text x="20" y="161" class="label">Lua</text>

<rect x="140" y="151" width="280" height="12"
      rx="6" fill="#eaeef2"/>

<rect x="140" y="151" width="15.915775304665528" height="12"
      rx="6" fill="#2da44e"/>

<text x="430" y="161"
      class="percent">5.68%</text>

<text x="20" y="193" class="label">C</text>

<rect x="140" y="183" width="280" height="12"
      rx="6" fill="#eaeef2"/>

<rect x="140" y="183" width="15.172751965002524" height="12"
      rx="6" fill="#2da44e"/>

<text x="430" y="193"
      class="percent">5.42%</text>
</svg>