
<svg width="500" height="200"
     viewBox="0 0 500 200"
     xmlns="http://www.w3.org/2000/svg">

<style>
  .title {
    font: bold 20px sans-serif;
    fill: #1f6feb;
  }
  .label {
    font: 14px sans-serif;
    fill: #24292f;
  }
  .percent {
    font: 13px monospace;
    fill: #57606a;
  }
</style>

<rect x="0" y="0" width="500" height="200"
      rx="12" fill="#ffffff" stroke="#d0d7de"/>

<text x="20" y="30" class="title">My Programming Languages</text>

<text x="20" y="65" class="label">Python</text>

<rect x="140" y="55" width="280" height="12"
      rx="6" fill="#eaeef2"/>

<rect x="140" y="55" width="132.6214141699975" height="12"
      rx="6" fill="#2da44e"/>

<text x="430" y="65"
      class="percent">47.36%</text>

<text x="20" y="97" class="label">Lean</text>

<rect x="140" y="87" width="280" height="12"
      rx="6" fill="#eaeef2"/>

<rect x="140" y="87" width="85.79165929751335" height="12"
      rx="6" fill="#2da44e"/>

<text x="430" y="97"
      class="percent">30.64%</text>

<text x="20" y="129" class="label">Futhark</text>

<rect x="140" y="119" width="280" height="12"
      rx="6" fill="#eaeef2"/>

<rect x="140" y="119" width="22.73198684163984" height="12"
      rx="6" fill="#2da44e"/>

<text x="430" y="129"
      class="percent">8.12%</text>

<text x="20" y="161" class="label">Lua</text>

<rect x="140" y="151" width="280" height="12"
      rx="6" fill="#eaeef2"/>

<rect x="140" y="151" width="11.710657564288494" height="12"
      rx="6" fill="#2da44e"/>

<text x="430" y="161"
      class="percent">4.18%</text>

<text x="20" y="193" class="label">C</text>

<rect x="140" y="183" width="280" height="12"
      rx="6" fill="#eaeef2"/>

<rect x="140" y="183" width="11.162958508719182" height="12"
      rx="6" fill="#2da44e"/>

<text x="430" y="193"
      class="percent">3.99%</text>
</svg>